<?xml version="1.0" standalone="no"?>
<!DOCTYPE svg PUBLIC "-//W3C//DTD SVG 20010904//EN"
 "http://www.w3.org/TR/2001/REC-SVG-20010904/DTD/svg10.dtd">
<svg version="1.0" xmlns="http://www.w3.org/2000/svg"
 width="503.000000pt" height="496.000000pt" viewBox="0 0 503.000000 496.000000"
 preserveAspectRatio="xMidYMid meet">
<metadata>
Created by potrace 1.16, written by Peter Selinger 2001-2019
</metadata>
<g transform="translate(0.000000,496.000000) scale(0.100000,-0.100000)"
fill="#000000" stroke="none">
<path d="M2455 4823 c-281 -20 -362 -32 -550 -85 -186 -52 -483 -186 -620
-281 -179 -124 -395 -319 -531 -480 -266 -317 -462 -778 -494 -1166 -12 -150
-12 -420 0 -541 35 -340 158 -686 348 -978 48 -75 106 -156 122 -172 3 -3 18
-23 35 -45 51 -69 85 -107 189 -208 158 -155 339 -285 526 -378 254 -126 406
-174 770 -240 99 -18 448 -19 555 -1 262 44 422 87 608 161 399 159 793 490
1041 874 64 99 160 277 180 335 9 24 22 57 30 75 8 17 28 73 45 122 26 80 36
119 71 270 34 151 49 435 33 626 -12 140 -18 180 -43 304 -54 272 -210 626
-367 834 -6 9 -34 46 -61 82 -121 163 -259 298 -450 441 -161 121 -390 247
-548 302 -43 15 -88 31 -99 35 -29 13 -152 48 -210 60 -27 6 -70 15 -95 20
-85 19 -396 40 -485 34z m415 -124 c165 -27 263 -52 405 -102 602 -212 1098
-686 1328 -1267 113 -288 157 -518 157 -824 -1 -310 -40 -513 -162 -836 -24
-64 -144 -294 -188 -360 -234 -351 -562 -637 -923 -804 -198 -92 -376 -148
-612 -192 -145 -27 -575 -27 -720 0 -400 75 -717 211 -1020 439 -103 78 -334
309 -412 412 -200 266 -334 552 -407 870 -69 302 -62 696 18 1010 55 219 164
474 266 627 22 33 40 62 40 65 0 7 87 120 148 193 73 86 219 229 301 294 87
68 209 156 218 156 3 0 14 6 22 14 49 42 327 172 461 215 154 50 222 68 365
92 191 32 517 32 715 -2z"/>
<path d="M2235 4670 c-365 -50 -667 -163 -963 -360 -154 -103 -173 -120 -332
-279 -245 -246 -420 -526 -519 -831 -46 -141 -60 -191 -75 -275 -99 -538 -9
-1060 262 -1520 201 -340 536 -655 888 -833 157 -80 385 -161 569 -201 250
-56 645 -54 920 4 221 47 505 160 694 278 194 120 422 320 558 488 184 229
334 517 407 784 156 567 82 1154 -209 1660 -181 315 -458 598 -765 782 -434
260 -953 369 -1435 303z m616 -792 c228 -63 413 -190 563 -388 132 -173 231
-397 274 -621 123 -630 -76 -1254 -503 -1575 -83 -62 -160 -102 -270 -141
l-80 -28 -748 -3 -749 -3 30 53 c16 29 52 94 80 143 68 123 89 161 171 303 39
68 71 125 71 127 0 2 20 38 45 79 25 42 45 79 45 81 0 3 18 34 40 70 22 36 40
67 40 68 0 2 36 66 80 143 44 76 80 142 80 146 0 4 -25 24 -56 43 -76 49 -154
124 -220 211 -30 40 -54 75 -54 78 0 4 -11 23 -24 44 -25 39 -75 157 -97 227
-48 155 -51 186 -56 568 -3 202 -2 375 1 383 9 23 1252 15 1337 -8z"/>
<path d="M1863 3414 c-8 -23 5 -177 22 -251 42 -180 140 -320 275 -392 78 -42
90 -40 121 17 64 119 102 188 109 197 9 12 43 74 125 225 35 63 75 135 89 160
14 25 26 48 26 53 0 4 -171 7 -380 7 -339 0 -381 -2 -387 -16z"/>
<path d="M2985 3263 c-11 -21 -29 -54 -41 -73 -41 -67 -254 -448 -254 -454 0
-3 148 -6 330 -6 l330 0 -6 33 c-20 106 -92 273 -162 372 -49 69 -143 165
-162 165 -8 0 -24 -17 -35 -37z"/>
<path d="M2397 2218 c-13 -24 -39 -70 -57 -103 -51 -93 -189 -338 -200 -355
-5 -8 -25 -44 -45 -80 -61 -112 -93 -100 285 -100 377 0 423 6 550 72 173 89
307 260 384 491 44 131 96 117 -433 117 l-459 0 -25 -42z"/>
</g>
</svg>
